<?xml version="1.0" standalone="no"?>
<!DOCTYPE svg PUBLIC "-//W3C//DTD SVG 20010904//EN"
 "http://www.w3.org/TR/2001/REC-SVG-20010904/DTD/svg10.dtd">
<svg version="1.0" xmlns="http://www.w3.org/2000/svg"
 width="450.000000pt" height="157.000000pt" viewBox="0 0 450.000000 157.000000"
 preserveAspectRatio="xMidYMid meet">
<metadata>
Created by potrace 1.10, written by Peter Selinger 2001-2011
</metadata>
<g transform="translate(0.000000,157.000000) scale(0.050000,-0.050000)"
fill="#3B82F6" stroke="none">
<path d="M7980 3058 c0 -10 11 -19 25 -20 14 0 -6 -13 -45 -27 -38 -14 -77
-22 -85 -17 -8 5 -15 -3 -15 -17 0 -14 -29 -52 -65 -84 -36 -32 -50 -53 -32
-47 20 7 39 -1 46 -19 12 -32 -27 -30 -120 6 -26 10 -31 7 -19 -12 12 -21 -4
-24 -82 -13 -101 15 -200 95 -174 141 7 11 5 14 -4 6 -9 -8 -46 4 -82 26 l-65
40 -42 -44 c-22 -25 -41 -39 -41 -32 0 7 -24 -11 -53 -40 -55 -54 -83 -567
-34 -603 37 -27 87 -140 67 -152 -11 -7 -20 -6 -20 3 0 8 -12 -2 -27 -22 -15
-21 -37 -31 -50 -23 -14 9 -23 2 -23 -16 0 -45 -94 -63 -136 -27 -19 16 -59
36 -90 43 -31 7 -50 22 -43 33 16 26 -36 15 -56 -11 -9 -12 -15 -10 -15 5 0
14 -10 25 -22 25 -12 0 -17 -13 -11 -30 11 -27 -21 -41 -73 -32 -10 2 -12 -5
-7 -14 6 -9 -15 -32 -46 -50 -68 -40 -84 -108 -87 -365 -2 -175 -4 -181 -43
-162 -38 18 -41 37 -41 231 l0 212 -73 70 c-40 39 -83 71 -95 72 -55 5 -64 9
-53 27 6 10 3 24 -9 31 -11 7 -20 1 -20 -14 0 -16 -6 -18 -15 -6 -21 29 -65
34 -65 8 0 -13 -18 -18 -42 -12 -23 6 -37 6 -30 -1 13 -13 -64 -72 -103 -78
-14 -2 -25 5 -25 16 0 10 -27 28 -60 40 -33 11 -56 27 -52 34 5 7 -27 14 -70
15 -56 1 -78 -6 -78 -27 0 -20 -13 -26 -40 -19 -26 7 -40 0 -40 -17 0 -23 -10
-24 -49 -6 -28 13 -44 33 -37 45 7 14 2 13 -14 -1 -25 -24 -87 -15 -72 10 5 8
-18 15 -50 16 -39 2 -58 -7 -58 -27 0 -17 -15 -26 -34 -22 -68 13 -172 -134
-182 -255 -5 -60 -17 -109 -26 -109 -9 0 -12 12 -7 26 6 14 -3 57 -19 95 -15
38 -31 78 -35 89 -4 11 -13 18 -20 16 -6 -2 -58 41 -115 95 -56 55 -102 88
-102 72 0 -19 -16 -24 -50 -18 -27 5 -50 20 -50 32 0 13 -9 10 -20 -7 -11 -16
-20 -23 -20 -14 0 9 -21 -5 -46 -30 -26 -25 -71 -64 -100 -86 -30 -22 -54 -51
-54 -65 0 -14 -18 -43 -40 -65 -22 -22 -40 -44 -40 -50 0 -5 0 -25 0 -42 0
-27 -5 -28 -30 -8 -16 13 -25 32 -19 41 5 9 1 22 -11 29 -11 7 -20 1 -21 -14
0 -16 -8 -12 -21 9 -11 19 -14 46 -6 58 8 13 5 18 -6 11 -11 -7 -49 18 -84 57
-35 38 -72 69 -84 69 -11 0 -14 10 -6 23 9 15 5 18 -10 8 -14 -8 -41 0 -63 20
-22 19 -39 28 -39 20 0 -9 -12 -6 -27 6 -15 13 -32 17 -39 10 -7 -6 -28 -5
-48 4 -72 31 -226 25 -226 -9 -1 -24 -5 -26 -17 -7 -12 19 -28 13 -63 -25 -49
-52 -128 -66 -152 -27 -9 15 -5 18 12 7 18 -11 21 -8 11 8 -8 13 -29 22 -48
21 -64 -7 -83 1 -83 36 -1 30 -3 31 -20 5 -13 -20 -19 -22 -20 -5 0 32 -43 24
-74 -15 -14 -16 -25 -23 -25 -14 -1 8 -21 -3 -45 -25 -24 -23 -55 -41 -70 -41
-14 0 -26 -13 -26 -30 0 -16 -7 -30 -16 -30 -8 0 -17 -23 -20 -51 -2 -28 -13
-69 -25 -90 -13 -25 -13 -39 -1 -39 12 0 18 -54 15 -131 -3 -72 2 -136 11
-141 9 -6 10 -21 1 -34 -21 -33 -19 -334 2 -334 10 0 12 -13 6 -30 -7 -17 -1
-30 13 -30 49 0 74 -71 41 -118 -16 -23 -25 -42 -19 -42 6 0 -11 -33 -39 -73
-27 -40 -50 -83 -51 -95 0 -12 -4 -39 -8 -60 -4 -22 5 -63 20 -93 16 -30 23
-60 16 -66 -7 -7 -2 -13 12 -13 14 0 47 -27 75 -60 28 -33 58 -55 67 -50 10 6
22 3 28 -7 6 -10 135 -16 287 -13 151 2 280 -4 287 -14 7 -10 45 -10 94 1 58
13 85 12 92 -4 5 -13 10 -8 10 11 1 21 13 31 30 24 15 -6 46 13 68 42 l42 52
57 -60 c54 -56 297 -103 335 -65 19 19 110 20 110 2 0 -11 10 -19 21 -19 12 0
16 8 10 19 -16 25 100 -9 184 -53 36 -19 65 -43 65 -53 0 -10 22 -3 49 15 27
17 60 32 73 32 13 0 40 19 61 43 20 24 37 36 37 27 0 -10 20 2 45 24 59 54
135 78 135 42 0 -41 98 -78 143 -55 25 14 50 13 78 -1 24 -13 106 -19 200 -14
88 5 165 1 171 -9 6 -10 28 -13 49 -7 68 22 359 15 388 -9 20 -17 31 -17 41
-1 8 12 38 20 67 18 111 -8 225 3 214 21 -7 10 5 16 27 11 22 -4 44 6 51 24 7
18 18 26 25 19 41 -42 88 97 87 257 -2 168 -7 188 -62 226 -50 35 -74 84 -40
84 10 0 32 -13 48 -30 17 -17 40 -30 53 -30 12 0 18 -7 13 -15 -5 -8 25 -15
67 -15 42 0 72 7 67 15 -5 8 9 15 32 15 22 0 41 12 41 26 0 39 80 37 138 -4
44 -31 218 -72 191 -45 -12 12 116 92 137 86 10 -2 12 5 5 15 -6 11 8 33 33
51 25 17 38 31 30 31 -9 0 -6 18 6 41 12 22 31 35 41 28 11 -6 14 -20 8 -30
-6 -11 -3 -19 8 -19 11 0 39 -31 62 -69 38 -62 80 -91 127 -90 8 0 30 -14 47
-31 28 -28 37 -28 77 -2 34 23 50 24 69 6 13 -13 22 -15 20 -4 -8 42 2 70 24
70 12 0 35 16 51 35 16 19 22 22 14 7 -9 -19 -6 -23 9 -14 13 8 19 22 13 32
-6 9 1 29 15 43 14 15 25 52 24 82 0 32 10 55 25 55 14 0 26 17 26 38 0 20 17
42 37 47 64 17 177 315 120 315 -24 0 -21 76 7 153 27 76 3 141 -85 227 l-52
50 56 50 c36 32 58 73 61 115 5 66 25 85 43 40 12 -31 12 -27 18 263 4 162 12
231 30 237 14 5 25 22 25 38 0 16 9 24 20 17 38 -24 20 9 -40 70 -37 38 -83
63 -120 66 -72 5 -74 10 -15 33 45 19 45 19 -5 18 -27 0 -84 4 -125 9 -41 5
-75 2 -75 -8z m-676 -478 c-2 -261 -8 -311 -33 -316 -27 -6 -31 37 -31 316 0
289 3 322 33 316 29 -5 33 -43 31 -316z m931 290 c-3 -11 -34 -20 -70 -20
l-65 0 0 -304 c0 -263 -4 -303 -30 -293 -25 9 -30 62 -30 305 l0 294 -70 -8
c-55 -7 -70 -1 -70 25 0 28 23 32 170 27 101 -4 168 -14 165 -26z m-463 -258
c140 -140 52 -351 -148 -352 -102 0 -171 41 -204 121 -91 220 183 400 352 231z
m168 -422 c0 -21 -20 -30 -65 -29 l-65 0 50 29 c64 37 80 37 80 0z m-4713
-636 l3 -414 -105 0 -105 0 0 415 0 415 102 -1 102 -2 3 -413z m2189 308 c58
-126 64 -126 114 0 l40 102 115 6 c139 8 138 31 5 -243 -109 -223 -110 -228
-110 -406 l0 -181 -107 0 -108 0 9 175 9 175 -119 234 c-135 265 -135 256 3
246 102 -7 103 -7 149 -108z m767 -218 l-7 -324 120 0 120 0 7 -90 7 -90 -194
0 c-265 0 -256 -16 -256 460 l0 370 104 -1 105 -2 -6 -323z m663 -90 l4 -414
-105 0 -105 0 0 415 0 415 101 -1 101 -2 4 -413z m644 324 l-1 -88 -124 -6
c-124 -6 -125 -7 -125 -65 0 -59 0 -59 120 -59 l120 0 0 -90 0 -90 -123 0
-123 0 11 -170 11 -170 -108 0 -108 0 0 368 c0 458 -5 449 240 457 94 4 179 5
190 4 11 -1 20 -42 20 -91z m610 2 l0 -100 -120 0 c-120 0 -120 0 -120 -60 0
-60 1 -60 115 -60 l115 0 0 -90 0 -90 -115 0 -115 0 0 -170 0 -170 -105 0
-105 0 7 375 c8 457 -1 441 240 450 95 4 180 9 188 11 8 2 15 -41 15 -96z
m-4254 52 c425 -182 261 -792 -214 -792 -211 0 -212 2 -212 410 0 408 1 410
212 410 83 0 178 -12 214 -28z m878 -7 c24 -28 134 -357 250 -750 9 -31 -4
-35 -110 -35 l-120 0 -14 80 -14 80 -96 0 -96 0 -14 -80 -14 -80 -120 0 c-106
0 -119 4 -110 35 6 19 52 175 103 345 132 441 131 440 238 440 58 0 97 -12
117 -35z m344 -249 c-10 -15 -3 -18 19 -10 20 8 33 3 33 -12 0 -13 12 -47 27
-75 14 -28 28 -114 31 -191 6 -184 13 -219 41 -213 12 3 21 -6 18 -20 -3 -14
6 -45 19 -70 26 -46 -14 -145 -58 -145 -10 0 -18 -11 -19 -25 0 -14 -25 -49
-55 -78 l-54 -53 -60 50 c-33 28 -47 44 -32 35 19 -10 23 -7 13 9 -11 18 -22
18 -47 -2 -26 -21 -29 -21 -16 0 12 19 3 22 -37 12 -39 -9 -61 -3 -81 25 -19
25 -29 28 -29 10 -1 -16 -14 -22 -31 -16 -16 7 -30 1 -30 -12 0 -17 -6 -17
-23 0 -14 14 -38 16 -68 5 -36 -14 -47 -10 -55 22 -9 32 -21 37 -65 26 -39
-10 -51 -7 -41 9 8 13 28 23 44 23 16 0 34 14 41 30 15 39 125 40 139 1 6 -16
24 -24 40 -18 15 6 28 1 28 -12 0 -13 9 -18 19 -12 10 7 29 -6 41 -28 23 -44
85 -58 69 -16 -5 14 27 44 76 70 133 71 204 242 147 355 -11 22 -21 54 -22 70
-1 17 -13 51 -28 77 -14 26 -21 64 -16 85 7 24 0 38 -17 38 -16 0 -23 12 -16
30 6 17 0 30 -15 30 -20 0 -21 5 -2 24 13 13 24 42 25 65 0 35 5 33 31 -14 16
-31 23 -66 16 -79z m720 -395 c-2 -33 2 -61 10 -61 23 0 82 -114 66 -129 -7
-8 0 -11 16 -8 17 4 28 -4 25 -18 -3 -14 2 -23 10 -20 21 7 165 -84 165 -104
0 -33 -122 -70 -139 -42 -10 15 -21 18 -28 6 -19 -31 -259 -9 -285 25 -34 45
-12 130 29 115 18 -6 27 -4 19 4 -16 17 27 71 47 59 7 -4 8 11 2 34 -6 24 1
49 16 59 17 10 25 45 22 89 -2 40 3 69 12 63 10 -6 16 -38 13 -72z m-1690
-198 c-11 -31 -46 -76 -79 -100 -32 -25 -59 -63 -59 -85 0 -33 -8 -38 -45 -26
-40 12 -42 10 -17 -20 24 -28 23 -31 -3 -21 -17 6 -36 30 -42 52 -8 33 -17 36
-50 18 -67 -35 -86 -25 -51 29 20 31 51 50 82 50 27 0 62 14 79 30 17 17 38
25 49 19 10 -6 18 -2 18 10 0 11 14 21 31 21 17 0 26 8 20 19 -6 10 7 24 29
31 22 7 35 23 27 35 -8 12 -4 15 9 8 15 -10 16 -31 2 -70z m-718 -57 c0 7 29
-4 65 -26 36 -22 81 -40 101 -40 20 0 31 -9 24 -20 -7 -11 -3 -20 9 -20 11 0
21 10 21 21 0 12 10 15 21 8 12 -7 16 -18 10 -25 -19 -18 -171 -18 -171 0 0 9
-21 16 -47 16 -61 0 -118 63 -100 110 13 34 15 34 40 -1 15 -20 27 -31 27 -23z
m-102 -195 c64 -64 65 -174 1 -242 -152 -162 -418 16 -311 209 61 111 216 127
310 33z m953 40 c41 -31 35 -35 -61 -39 -90 -3 -90 -63 -1 -106 161 -76 69
-258 -97 -194 -53 20 -36 53 22 42 122 -23 152 69 38 116 -98 42 -118 104 -52
170 47 47 98 51 151 11z m104 -53 c-6 -46 0 -58 28 -58 21 0 37 -9 37 -20 0
-11 -18 -20 -40 -20 -29 0 -40 -13 -40 -50 0 -27 18 -68 40 -90 47 -47 50 -60
11 -60 -75 0 -140 304 -78 366 26 26 51 -13 42 -68z m1055 -79 c24 -82 51
-165 59 -184 11 -24 6 -35 -15 -35 -16 0 -34 18 -40 40 -15 57 -133 57 -148 0
-6 -22 -24 -40 -40 -40 -21 0 -26 11 -17 35 12 30 78 237 103 322 17 58 55 4
98 -138z m137 84 c-3 -57 3 -63 54 -63 70 0 99 -47 99 -159 0 -60 -8 -81 -31
-81 -23 0 -29 19 -26 80 5 89 -23 132 -73 113 -25 -10 -32 -34 -27 -96 4 -53
-3 -87 -19 -92 -18 -6 -24 41 -24 185 0 146 6 191 25 185 14 -5 24 -37 22 -72z
m1013 -72 c0 -198 -91 -290 -202 -205 -103 78 -45 223 84 210 l78 -7 0 75 c0
42 9 76 20 76 12 0 20 -63 20 -149z m-3013 -6 c22 -37 22 -212 -1 -220 -16 -5
-26 25 -30 89 -9 142 -83 143 -92 1 -8 -124 -44 -123 -44 1 0 120 117 210 167
129z m276 -18 c73 -66 15 -207 -84 -207 -46 0 -139 84 -139 125 0 99 146 152
223 82z m840 0 c48 -44 47 -117 -3 -167 -54 -54 -111 -50 -172 10 -111 111 59
262 175 157z m297 -7 c82 -82 -5 -216 -125 -192 -52 10 -55 7 -55 -58 0 -51
-9 -70 -32 -70 -21 0 -28 11 -20 32 7 17 12 84 12 148 0 171 115 245 220 140z
m983 7 c73 -66 15 -207 -84 -207 -48 0 -139 85 -139 129 0 91 151 143 223 78z
m278 12 c30 -16 39 -42 39 -116 l0 -95 -75 -3 c-108 -3 -165 40 -165 124 0 99
101 144 201 90z"/>
<path d="M7518 2582 c-97 -98 -31 -282 102 -282 61 0 160 105 160 170 0 138
-165 208 -262 112z"/>
<path d="M3638 1794 c0 -2 -3 -110 -5 -241 l-3 -236 60 12 c169 34 240 246
122 369 -46 48 -166 114 -174 96z"/>
<path d="M4585 1550 c-20 -67 -19 -70 29 -70 43 0 49 7 39 45 -7 25 -13 56
-13 70 0 50 -34 23 -55 -45z"/>
<path d="M3040 800 c-84 -84 -21 -227 100 -227 121 0 184 143 100 227 -22 22
-67 40 -100 40 -33 0 -78 -18 -100 -40z"/>
<path d="M5288 709 c-22 -68 -21 -69 35 -69 54 0 55 2 33 55 -37 87 -45 88
-68 14z"/>
<path d="M6339 678 c-39 -72 40 -136 110 -91 59 39 63 58 20 102 -45 44 -103
39 -130 -11z"/>
<path d="M3650 700 c-7 -12 17 -20 60 -20 43 0 67 8 60 20 -7 11 -34 20 -60
20 -26 0 -53 -9 -60 -20z"/>
<path d="M3645 616 c15 -45 70 -65 103 -37 51 41 38 61 -40 61 -46 0 -69 -8
-63 -24z"/>
<path d="M4500 700 c-22 -14 -10 -19 46 -20 46 0 71 8 64 20 -16 25 -71 25
-110 0z"/>
<path d="M4480 621 c0 -59 126 -67 148 -9 8 21 -8 28 -69 28 -43 0 -79 -9 -79
-19z"/>
<path d="M4784 696 c-64 -64 15 -159 96 -116 68 36 39 140 -40 140 -18 0 -43
-11 -56 -24z"/>
<path d="M5770 700 c-7 -12 17 -20 60 -20 43 0 67 8 60 20 -7 11 -34 20 -60
20 -26 0 -53 -9 -60 -20z"/>
<path d="M5760 621 c0 -50 84 -65 127 -23 l42 42 -85 0 c-46 0 -84 -9 -84 -19z"/>
<path d="M6064 696 c-64 -64 15 -159 96 -116 68 36 39 140 -40 140 -18 0 -43
-11 -56 -24z"/>
<path d="M1232 2748 c-37 -26 -74 -40 -83 -32 -8 8 -9 3 -1 -10 8 -14 -4 -35
-27 -50 -23 -14 -41 -41 -41 -61 0 -19 -11 -35 -25 -35 -35 0 -31 -198 4 -220
15 -8 20 -26 12 -38 -7 -12 -3 -22 10 -22 13 0 18 -13 12 -30 -7 -16 -5 -30 3
-30 8 0 24 -23 37 -50 13 -28 16 -45 6 -39 -9 5 -27 -8 -39 -30 -22 -42 -51
-45 -92 -11 -15 12 -17 28 -6 42 12 15 7 32 -13 49 -17 14 -26 37 -21 51 5 13
-8 45 -29 69 -22 25 -39 53 -39 62 0 9 -36 43 -79 74 -44 32 -75 62 -69 68 17
18 -99 13 -178 -8 -91 -23 -196 -110 -180 -149 6 -16 -2 -28 -17 -28 -40 0
-78 -134 -46 -161 14 -11 21 -37 15 -57 -6 -23 10 -52 45 -79 30 -24 46 -43
37 -43 -10 0 14 -28 52 -62 39 -35 57 -56 42 -47 -19 10 -23 7 -13 -9 8 -13
32 -18 53 -12 30 10 35 5 24 -24 -12 -31 -9 -32 18 -10 18 15 37 18 44 8 6
-10 32 -15 59 -10 62 12 87 -45 32 -74 -21 -12 -39 -14 -39 -5 0 9 -16 18 -35
19 -97 7 -120 16 -110 41 5 15 2 24 -8 22 -27 -8 -116 26 -132 51 -9 13 -15 8
-15 -14 0 -29 -12 -35 -61 -27 -60 10 -179 -78 -179 -131 0 -10 -8 -13 -18 -7
-92 56 -94 -269 -3 -354 34 -32 61 -67 61 -79 0 -13 5 -17 12 -11 16 16 88
-49 76 -69 -6 -9 -1 -16 10 -16 11 0 25 8 31 19 14 22 91 19 91 -3 0 -9 14
-16 31 -16 17 0 26 -9 19 -20 -7 -12 -21 -15 -31 -9 -11 6 -19 -2 -19 -19 0
-46 -44 -132 -62 -121 -8 5 -13 -15 -9 -46 3 -30 -4 -68 -16 -84 -18 -22 -17
-25 2 -14 17 10 25 2 25 -26 0 -22 10 -41 21 -41 12 0 16 -9 9 -19 -14 -24
130 -164 153 -149 9 6 17 2 17 -7 0 -10 32 -28 70 -40 39 -12 70 -15 70 -8 0
7 23 23 50 36 34 16 46 16 37 2 -8 -12 10 -5 39 17 29 21 53 51 53 66 1 16 6
23 13 17 18 -19 88 61 95 110 4 25 17 45 28 45 12 0 29 8 38 18 10 11 7 13 -6
5 -26 -14 -46 24 -32 62 4 14 26 25 47 25 21 0 38 11 38 23 0 13 6 18 13 11 7
-7 2 -26 -11 -42 -18 -22 -18 -30 2 -38 20 -8 20 -11 1 -12 -14 -1 -25 -23
-25 -48 0 -26 -19 -67 -42 -91 -47 -51 -68 -263 -25 -263 12 0 28 -20 35 -45
13 -49 178 -185 188 -155 4 10 19 13 35 7 16 -6 25 -18 20 -26 -5 -8 4 -14 20
-14 16 0 29 9 29 21 0 12 9 9 20 -8 14 -22 19 -23 20 -4 0 15 7 22 16 16 9 -5
42 12 73 39 32 27 65 49 74 49 9 0 17 9 17 21 0 11 18 45 41 76 26 36 41 88
42 151 l2 96 31 -65 c18 -36 48 -69 68 -74 20 -5 36 -18 36 -27 0 -10 17 -18
39 -18 21 0 44 -8 50 -18 15 -25 171 -38 171 -14 0 10 6 13 13 6 7 -7 37 14
67 46 30 32 60 53 67 46 7 -7 13 -2 13 12 0 35 52 83 71 66 8 -8 9 -3 2 10 -8
13 -5 29 5 35 24 15 20 91 -5 91 -10 0 -7 13 6 28 16 20 16 32 2 42 -12 7 -16
23 -8 36 7 13 6 17 -4 8 -9 -8 -32 14 -49 50 -18 36 -43 64 -56 61 -13 -3 -24
4 -24 15 0 11 -15 20 -32 20 -27 0 -29 5 -7 31 20 24 20 36 1 55 -19 19 -21
16 -11 -12 12 -31 6 -34 -43 -22 -32 8 -61 22 -65 31 -3 10 -15 12 -25 6 -64
-40 -125 64 -67 112 23 19 29 17 29 -14 1 -28 5 -31 18 -10 12 19 21 21 31 5
8 -13 22 -17 33 -11 10 7 17 1 13 -12 -3 -13 6 -28 20 -33 17 -6 21 2 11 27
-15 39 -2 31 101 -64 24 -23 54 -39 67 -34 12 4 28 -2 35 -14 20 -32 107 -25
127 11 10 17 24 31 31 30 38 -5 49 2 59 38 6 22 25 40 43 40 18 0 28 8 22 19
-6 10 4 30 24 45 19 14 37 36 39 48 2 13 8 45 13 71 5 27 -3 82 -17 123 -14
41 -20 74 -13 74 7 0 -8 12 -35 25 -26 14 -46 33 -43 43 2 10 -24 31 -57 47
-34 16 -57 36 -53 44 5 8 -3 14 -19 14 -16 0 -24 -6 -20 -13 5 -8 -15 -10 -45
-4 -49 9 -50 12 -14 26 36 14 36 15 -6 17 -25 0 -45 -9 -45 -20 0 -12 -8 -16
-18 -10 -10 6 -22 4 -25 -4 -26 -57 -310 -128 -311 -77 0 12 -6 40 -13 62 -10
33 -3 41 42 43 47 3 82 8 169 24 93 18 248 267 228 368 -7 36 -14 76 -16 89
-1 13 -10 20 -19 14 -17 -10 -26 22 -18 62 3 11 -2 13 -10 5 -20 -19 -72 24
-58 47 6 10 -7 18 -30 18 -22 0 -41 8 -41 19 0 10 -16 19 -35 20 -19 1 -62 4
-95 7 -59 5 -190 -54 -190 -87 0 -9 -18 -22 -40 -29 -21 -7 -37 -22 -35 -34 3
-11 -8 -26 -23 -31 -18 -7 -22 -2 -12 15 11 17 8 21 -7 12 -13 -8 -19 -22 -13
-32 16 -26 -12 -81 -35 -67 -14 9 -15 3 -4 -15 23 -36 13 -97 -21 -131 -23
-23 -27 -11 -25 73 2 78 11 102 39 111 20 7 31 21 25 31 -7 11 -4 31 7 44 35
45 17 187 -32 243 -25 29 -41 60 -35 70 6 9 -12 22 -39 29 -28 7 -50 26 -50
41 0 18 -15 26 -40 21 -22 -4 -40 0 -40 9 0 40 -123 33 -188 -11z m230 -186
c32 -33 58 -73 58 -89 0 -64 -41 -134 -92 -158 -50 -22 -52 -29 -42 -139 10
-111 8 -116 -36 -116 -44 0 -46 5 -36 116 10 110 8 117 -42 139 -144 66 -83
305 78 305 32 0 76 -23 112 -58z m-702 -262 c41 -41 47 -67 41 -165 -3 -40 13
-70 57 -107 65 -54 78 -96 38 -120 -14 -9 -48 14 -86 58 -57 65 -70 71 -136
61 -156 -26 -253 178 -132 278 58 48 168 45 218 -5z m1359 -33 c100 -127 -36
-323 -174 -250 -32 18 -51 8 -116 -58 -79 -81 -116 -96 -140 -57 -8 13 24 55
73 98 78 67 87 83 81 149 -13 156 181 239 276 118z m-601 -346 c397 -202 300
-793 -141 -853 -175 -24 -380 79 -445 225 -18 42 -43 93 -53 112 -161 294 317
680 639 516z m-1038 -281 c22 -22 40 -49 40 -60 0 -11 57 -20 130 -20 117 0
130 -4 130 -40 0 -35 -13 -40 -116 -40 -106 0 -120 -5 -161 -60 -88 -120 -283
-55 -283 94 0 138 168 218 260 126z m1914 -63 c67 -64 64 -180 -7 -236 -89
-70 -190 -48 -244 54 -21 39 -40 45 -144 45 -106 0 -119 4 -119 40 0 36 13 40
123 40 105 0 129 7 169 50 59 64 158 67 222 7z m-1640 -305 c5 -4 -12 -15 -37
-23 -26 -8 -54 -24 -62 -37 -10 -15 -14 -14 -15 4 0 15 -8 21 -19 15 -10 -6
-24 -2 -31 10 -9 14 -24 13 -47 -5 -29 -23 -30 -22 -6 9 15 19 35 30 45 24 10
-6 33 -3 52 8 32 18 100 15 120 -5z m197 -114 c8 -12 -21 -57 -63 -100 -68
-69 -75 -88 -71 -165 9 -135 -100 -207 -224 -151 -162 74 -91 312 88 294 70
-6 88 2 153 68 79 81 96 89 117 54z m850 -129 c55 -57 78 -68 122 -58 169 37
267 -168 134 -281 -113 -95 -274 1 -249 148 11 66 5 78 -71 144 -50 43 -78 81
-69 95 24 39 61 26 133 -48z m-443 -154 c-4 -94 2 -111 59 -169 74 -74 80
-139 22 -213 -53 -68 -178 -74 -239 -13 -73 73 -35 260 53 260 20 0 27 33 27
120 0 108 4 120 41 120 38 0 41 -11 37 -105z m259 -72 c-2 -55 -5 -61 -11 -23
-11 58 -46 103 -47 59 0 -20 -7 -18 -22 8 -16 29 -15 42 5 54 43 27 78 -20 75
-98z"/>
<path d="M1148 1882 c-212 -96 -298 -370 -180 -571 214 -364 752 -218 752 204
0 300 -298 491 -572 367z m262 -147 c168 -195 192 -329 82 -450 -101 -110
-243 -110 -343 -1 -123 134 -113 199 66 427 103 131 103 131 195 24z"/>
<path d="M1160 1420 c0 -47 67 -120 110 -120 45 0 36 54 -11 66 -23 6 -47 30
-53 53 -14 52 -46 54 -46 1z"/>
</g>
</svg>
